<svg width="174" height="34" viewBox="0 0 174 34" fill="none" xmlns="http://www.w3.org/2000/svg">
<path d="M20.2876 2.24674C20.8674 2.23264 21.4392 2.23654 22.0072 2.36874C22.6865 2.52684 23.2193 2.86954 23.7047 3.36724C24.9164 4.60984 25.8828 6.30384 26.8365 7.76484L30.786 13.7178C31.6593 15.0898 32.3821 16.4908 31.944 18.1778C31.3864 20.3238 26.278 26.5388 24.3571 27.7148C23.3469 27.9318 22.4189 28.0368 21.4349 27.6408C20.4382 27.2398 19.4636 26.5428 19.0286 25.5288C17.6202 22.2468 21.1401 20.1448 22.2527 17.3238C22.85 15.8088 18.7155 10.6788 17.8437 9.30784C17.244 8.36484 16.7791 7.36184 16.3257 6.34284C17.1781 4.26084 18.2861 3.19084 20.2876 2.24674Z" fill="#00378C"/>
<path d="M5.39002 5.5011C6.52532 5.4341 7.51202 5.3321 8.49222 6.0241L8.62502 6.1201L9.23932 6.60309C11.1733 8.44109 12.9441 11.2411 14.4336 13.4651C14.9841 14.2871 15.5864 15.1771 15.5784 16.2061C15.5621 18.2931 13.3661 20.9451 12.2528 22.6251C10.4125 25.4021 8.74322 28.3521 6.37052 30.7121L6.26262 30.7651C5.41342 31.1381 3.89032 31.1421 3.02342 30.8051C1.81182 30.3331 0.689016 29.1891 0.203316 27.9861C-0.955484 25.1161 4.45682 20.3331 5.41382 17.6981C6.41032 14.9541 3.43742 13.0821 2.40972 10.8751C1.97512 9.9421 2.01791 8.9371 2.37931 7.9811C2.87331 6.6741 4.19332 6.0201 5.39002 5.5011Z" fill="#00378C"/>
<path d="M49.1868 0.506101C49.9375 0.458501 50.55 0.477798 51.2499 0.780698C52.2715 1.2228 53.0979 1.8541 53.4952 2.9216C54.0641 4.45 53.7763 6.845 53.7807 8.486L53.7795 24.661C53.7751 26.42 54.1644 29.462 53.3738 31.057C52.8063 32.202 51.9962 32.607 50.8355 33.025C50.1497 33.037 49.3473 33.093 48.6779 32.936C47.8735 32.747 46.9926 32.027 46.5982 31.309C45.6777 29.633 45.6728 5.04299 46.3873 2.85479C46.7902 1.6209 48.1112 1.0351 49.1868 0.506101Z" fill="#00378C"/>
<path d="M153.988 0.578919L155.412 0.521417C160.145 0.398217 164.976 1.95602 168.428 5.27302C171.485 8.20802 173.228 12.289 173.277 16.526C173.325 20.738 171.885 25 168.91 28.029C166.592 30.389 162.19 33.157 158.75 32.975C157.836 32.927 157.29 32.511 156.7 31.847C156.04 31.104 155.957 29.947 156.008 29C156.133 26.689 158.873 26.573 160.552 25.744C161.551 25.251 162.35 24.535 163.176 23.802C163.761 23.116 164.236 22.371 164.65 21.573C165.855 19.253 165.987 15.882 165.177 13.408C164.434 11.135 162.614 9.03401 160.468 7.99301C157.998 6.79401 154.968 6.65402 152.38 7.56402C148.888 8.79102 147.829 11.334 146.3 14.399C145.814 15.372 145.128 15.876 144.125 16.222C143.244 16.526 142.65 16.458 141.771 16.115C140.879 15.766 140.107 15.077 139.715 14.198L139.661 14.075C139.527 13.774 139.398 13.474 139.346 13.145C139.064 11.373 140.562 8.92202 141.566 7.52202C144.66 3.20872 148.908 1.40302 153.988 0.578919Z" fill="#00378C"/>
<path d="M118.292 0.571633C118.577 0.522633 118.853 0.518933 119.143 0.512833C122.764 0.436033 128.427 1.14083 131.027 3.97603C131.675 4.68213 131.766 5.21713 131.77 6.13113C131.774 7.08113 131.476 7.91513 130.777 8.58413C128.645 10.6201 126.843 8.75413 124.781 7.80313C123.764 7.33313 122.509 7.02113 121.385 6.97113C118.563 6.84513 115.831 7.54513 113.73 9.51813C111.898 11.2391 110.81 13.8811 110.739 16.3841C110.665 19.0041 111.524 21.8621 113.375 23.7821C116.134 26.6431 120.719 27.5061 124.394 26.0311C126.052 25.3651 127.136 24.2171 129.017 24.2391L129.125 24.2411C129.449 24.3001 129.727 24.4141 130.01 24.5781C130.825 25.0491 131.567 25.8211 131.795 26.7651C131.974 27.5121 131.819 28.4971 131.39 29.1361C129.98 31.2351 126.105 32.3981 123.758 32.8031C119.097 33.6091 113.714 32.7291 109.824 29.9821C106.415 27.5751 104.07 23.7541 103.404 19.6441C102.706 15.3361 103.673 10.8331 106.228 7.29213C109.179 3.20163 113.435 1.36293 118.292 0.571633Z" fill="#00378C"/>
<path d="M89.8771 0.624883C90.2631 0.553383 90.6621 0.492787 91.0551 0.501287C91.9591 0.520887 92.9371 1.20288 93.5361 1.83738C94.0071 2.33568 94.3231 2.94548 94.4401 3.62288C94.8701 6.11788 94.5251 9.24088 94.5281 11.7899L94.5151 28.7549C94.4881 29.9389 94.0371 31.1999 93.1481 32.0119C92.1831 32.8949 90.9571 33.1609 89.6801 33.0699C88.8631 33.0119 88.2281 32.7829 87.5981 32.2529C85.7841 30.7289 84.2111 28.3749 82.7101 26.5359L72.0639 13.6849L72.1919 27.5629C72.1658 28.5569 72.1315 29.7649 71.8427 30.7149C71.5919 31.5399 70.8789 32.3549 70.1173 32.7549C69.3225 33.1729 67.8019 33.1889 66.9772 32.9029C66.2369 32.6459 65.3242 31.8569 64.9763 31.1569L64.9224 31.0459C64.7551 30.7109 64.6257 30.3829 64.5553 30.0119C64.3631 28.9999 64.4878 27.7399 64.4778 26.7019L64.4604 19.6639C64.4657 18.5499 64.1597 16.2379 64.8189 15.3789L70.0554 8.52688C70.7841 7.60188 71.7055 6.11388 72.8441 5.67088C73.4691 5.42788 74.1267 5.36688 74.7346 5.68288C75.5823 6.12388 76.4111 7.22388 77.0211 7.94888L81.5221 13.5009C82.0591 14.1459 82.8621 15.2699 83.6731 15.5569C84.3511 15.7969 84.8271 15.7559 85.4671 15.4529C88.5681 13.9809 86.1011 5.72388 87.2001 2.87068C87.6311 1.75228 88.8251 1.04008 89.8771 0.624883Z" fill="#00378C"/>
</svg>
