<svg width="174" height="33" viewBox="0 0 174 33" fill="none" xmlns="http://www.w3.org/2000/svg">
<path d="M20.2876 1.76041C20.8674 1.74631 21.4392 1.75021 22.0072 1.88241C22.6865 2.04051 23.2193 2.38321 23.7047 2.88091C24.9164 4.12351 25.8828 5.81751 26.8365 7.27851L30.786 13.2315C31.6593 14.6035 32.3821 16.0045 31.944 17.6915C31.3864 19.8375 26.278 26.0525 24.3571 27.2285C23.3469 27.4455 22.4189 27.5505 21.4349 27.1545C20.4382 26.7535 19.4636 26.0565 19.0286 25.0425C17.6202 21.7605 21.1401 19.6585 22.2527 16.8375C22.85 15.3225 18.7155 10.1925 17.8437 8.82151C17.244 7.87851 16.7791 6.87551 16.3257 5.85651C17.1781 3.77451 18.2861 2.70451 20.2876 1.76041Z" fill="white"/>
<path d="M5.39002 5.01477C6.52532 4.94777 7.51202 4.84577 8.49222 5.53777L8.62502 5.63377L9.23932 6.11677C11.1733 7.95477 12.9441 10.7548 14.4336 12.9788C14.9841 13.8008 15.5864 14.6908 15.5784 15.7198C15.5621 17.8068 13.3661 20.4588 12.2528 22.1388C10.4125 24.9158 8.74322 27.8658 6.37052 30.2258L6.26262 30.2788C5.41342 30.6518 3.89032 30.6558 3.02342 30.3188C1.81182 29.8468 0.689016 28.7028 0.203316 27.4998C-0.955484 24.6298 4.45682 19.8468 5.41382 17.2118C6.41032 14.4678 3.43742 12.5958 2.40972 10.3888C1.97512 9.45577 2.01791 8.45077 2.37931 7.49477C2.87331 6.18777 4.19332 5.53377 5.39002 5.01477Z" fill="white"/>
<path d="M49.1868 0.019773C49.9375 -0.027827 50.55 -0.00852978 51.2499 0.29437C52.2715 0.73647 53.0979 1.36777 53.4952 2.43527C54.0641 3.96367 53.7763 6.35867 53.7807 7.99967L53.7795 24.1747C53.7751 25.9337 54.1644 28.9757 53.3738 30.5707C52.8063 31.7157 51.9962 32.1207 50.8355 32.5387C50.1497 32.5507 49.3473 32.6067 48.6779 32.4497C47.8735 32.2607 46.9926 31.5407 46.5982 30.8227C45.6777 29.1467 45.6728 4.55667 46.3873 2.36847C46.7902 1.13457 48.1112 0.548773 49.1868 0.019773Z" fill="white"/>
<path d="M153.988 0.0925912L155.412 0.0350884C160.145 -0.0881116 164.976 1.46969 168.428 4.78669C171.485 7.72169 173.228 11.8027 173.277 16.0397C173.325 20.2517 171.885 24.5137 168.91 27.5427C166.592 29.9027 162.19 32.6707 158.75 32.4887C157.836 32.4407 157.29 32.0247 156.7 31.3607C156.04 30.6177 155.957 29.4607 156.008 28.5137C156.133 26.2027 158.873 26.0867 160.552 25.2577C161.551 24.7647 162.35 24.0487 163.176 23.3157C163.761 22.6297 164.236 21.8847 164.65 21.0867C165.855 18.7667 165.987 15.3957 165.177 12.9217C164.434 10.6487 162.614 8.54768 160.468 7.50668C157.998 6.30768 154.968 6.16769 152.38 7.07769C148.888 8.30469 147.829 10.8477 146.3 13.9127C145.814 14.8857 145.128 15.3897 144.125 15.7357C143.244 16.0397 142.65 15.9717 141.771 15.6287C140.879 15.2797 140.107 14.5907 139.715 13.7117L139.661 13.5887C139.527 13.2877 139.398 12.9877 139.346 12.6587C139.064 10.8867 140.562 8.43569 141.566 7.03569C144.66 2.72239 148.908 0.916691 153.988 0.0925912Z" fill="white"/>
<path d="M118.292 0.0853051C118.577 0.0363051 118.853 0.0326053 119.143 0.0265053C122.764 -0.0502947 128.427 0.654501 131.027 3.4897C131.675 4.1958 131.766 4.7308 131.77 5.6448C131.774 6.5948 131.476 7.4288 130.777 8.0978C128.645 10.1338 126.843 8.2678 124.781 7.3168C123.764 6.8468 122.509 6.5348 121.385 6.4848C118.563 6.3588 115.831 7.0588 113.73 9.0318C111.898 10.7528 110.81 13.3948 110.739 15.8978C110.665 18.5178 111.524 21.3758 113.375 23.2958C116.134 26.1568 120.719 27.0198 124.394 25.5448C126.052 24.8788 127.136 23.7308 129.017 23.7528L129.125 23.7548C129.449 23.8138 129.727 23.9278 130.01 24.0918C130.825 24.5628 131.567 25.3348 131.795 26.2788C131.974 27.0258 131.819 28.0108 131.39 28.6498C129.98 30.7488 126.105 31.9118 123.758 32.3168C119.097 33.1228 113.714 32.2428 109.824 29.4958C106.415 27.0888 104.07 23.2678 103.404 19.1578C102.706 14.8498 103.673 10.3468 106.228 6.8058C109.179 2.7153 113.435 0.876605 118.292 0.0853051Z" fill="white"/>
<path d="M89.8771 0.138555C90.2631 0.0670547 90.6621 0.00645849 91.0551 0.0149585C91.9591 0.0345585 92.9371 0.716556 93.5361 1.35106C94.0071 1.84936 94.3231 2.45916 94.4401 3.13656C94.8701 5.63156 94.5251 8.75456 94.5281 11.3036L94.5151 28.2686C94.4881 29.4526 94.0371 30.7135 93.1481 31.5255C92.1831 32.4085 90.9571 32.6746 89.6801 32.5836C88.8631 32.5256 88.2281 32.2966 87.5981 31.7666C85.7841 30.2426 84.2111 27.8886 82.7101 26.0496L72.0639 13.1986L72.1919 27.0766C72.1658 28.0706 72.1315 29.2786 71.8427 30.2286C71.5919 31.0536 70.8789 31.8686 70.1173 32.2686C69.3225 32.6866 67.8019 32.7026 66.9772 32.4166C66.2369 32.1596 65.3242 31.3706 64.9763 30.6706L64.9224 30.5596C64.7551 30.2246 64.6257 29.8966 64.5553 29.5256C64.3631 28.5136 64.4878 27.2536 64.4778 26.2156L64.4604 19.1776C64.4657 18.0636 64.1597 15.7516 64.8189 14.8926L70.0554 8.04056C70.7841 7.11555 71.7055 5.62755 72.8441 5.18455C73.4691 4.94155 74.1267 4.88055 74.7346 5.19655C75.5823 5.63755 76.4111 6.73755 77.0211 7.46255L81.5221 13.0146C82.0591 13.6596 82.8621 14.7836 83.6731 15.0706C84.3511 15.3106 84.8271 15.2696 85.4671 14.9666C88.5681 13.4946 86.1011 5.23755 87.2001 2.38435C87.6311 1.26595 88.8251 0.553755 89.8771 0.138555Z" fill="white"/>
</svg>
