<svg width="76" height="68" viewBox="0 0 76 68" fill="none" xmlns="http://www.w3.org/2000/svg">
<path d="M47.5104 0.131632C48.871 0.0985442 50.2128 0.107682 51.5457 0.417911C53.1398 0.788919 54.3901 1.59313 55.5292 2.76107C58.3726 5.67704 60.6405 9.65229 62.8785 13.0808L72.1466 27.0505C74.196 30.2701 75.8922 33.5578 74.8641 37.5166C73.5556 42.5526 61.5679 57.1371 57.0602 59.8968C54.6895 60.406 52.5118 60.6524 50.2027 59.7231C47.8638 58.7821 45.5767 57.1465 44.5559 54.767C41.2509 47.0652 49.5109 42.1325 52.1218 35.5125C53.5235 31.9573 43.8212 19.919 41.7754 16.7017C40.3681 14.4888 39.2771 12.1351 38.2131 9.74381C40.2134 4.85805 42.8135 2.34712 47.5104 0.131632Z" fill="#153989"/>
<path d="M12.5512 7.76785C15.2153 7.61062 17.5308 7.37127 19.831 8.99516L20.1426 9.22044L21.5842 10.3539C26.1227 14.667 30.2781 21.2377 33.7735 26.4567C35.0653 28.3857 36.4787 30.4742 36.46 32.8889C36.4217 37.7864 31.2684 44.0098 28.6559 47.9522C24.3373 54.4689 20.42 61.3915 14.8521 66.9297L14.5989 67.054C12.6061 67.9293 9.03188 67.9387 6.99755 67.1479C4.15433 66.0403 1.5195 63.3557 0.37972 60.5326C-2.3396 53.7977 10.3613 42.5736 12.607 36.3901C14.9455 29.9509 7.96907 25.5579 5.5574 20.3788C4.53754 18.1894 4.63798 15.831 5.48606 13.5876C6.64532 10.5205 9.74292 8.98577 12.5512 7.76785Z" fill="#153989"/>
</svg>
